<?xml version="1.0" encoding="UTF-8"?>
<svg xmlns="http://www.w3.org/2000/svg" id="Layer_1" data-name="Layer 1" viewBox="0 0 24 24">
  <path d="m6,14c1.091,0,1.98.877,2,1.963.02,1.105.807,2.037,1.912,2.037h4.176c1.106,0,1.892-.931,1.912-2.037.02-1.086.909-1.963,2-1.963h6c0-1.056-.091-2.109-.272-3.149l-1.166-6.708c-.416-2.395-2.495-4.143-4.926-4.143H6.364C3.933,0,1.854,1.748,1.438,4.143L.272,10.85c-.181,1.04-.272,2.094-.272,3.15h0s6,0,6,0Zm-.76-10h13.523c.482,0,.896.344.984.819.113.614-.359,1.181-.984,1.181H5.24c-.625,0-1.097-.567-.983-1.182.088-.474.501-.818.983-.818Zm-.74,4h14.999c.482,0,.896.344.984.819.113.614-.359,1.181-.984,1.181H4.5c-.625,0-1.097-.567-.983-1.182.088-.474.501-.818.983-.818Zm19.5,8v3c0,2.757-2.243,5-5,5H5c-2.757,0-5-2.243-5-5v-3h6c0,2.206,1.794,4,4,4h4c2.206,0,4-1.794,4-4h6Z"/>
</svg>
