<svg xmlns="http://www.w3.org/2000/svg" width="29.24" height="29.24" viewBox="0 0 29.24 29.24">
  <path id="Icon_awesome-phone" data-name="Icon awesome-phone" d="M28.177,1.4,22.238.034a1.379,1.379,0,0,0-1.57.794l-2.741,6.4a1.367,1.367,0,0,0,.394,1.6l3.461,2.833a21.165,21.165,0,0,1-10.12,10.12L8.829,18.314a1.369,1.369,0,0,0-1.6-.394l-6.4,2.741a1.387,1.387,0,0,0-.8,1.576L1.4,28.177a1.37,1.37,0,0,0,1.336,1.062,26.5,26.5,0,0,0,26.5-26.5A1.369,1.369,0,0,0,28.177,1.4Z" transform="translate(0.001 0.001)" fill="#fff"/>
</svg>
